<svg xmlns="http://www.w3.org/2000/svg" width="424" height="51">
    <path fill-rule="evenodd" fill="#FFBA57" d="M420.707 15.855a790.9 790.9 0 0 0-19.776-.39l-5.99 33.93h-16.267l5.989-33.93c-6.471.044-13.088.174-19.85.39l2.41-13.65h55.894l-2.41 13.65zm-67.019 33.54h-23.295l-9.482-35.49-5.093 35.49h-16.723c1.83-8.406 3.393-16.271 4.686-23.595 1.284-7.28 2.495-15.122 3.633-23.53h23.945l9.375 36.465 5.33-36.465h15.942c-1.596 7.324-3.132 15.168-4.608 23.53-1.485 8.408-2.722 16.273-3.71 23.595zM264.289 13.97l-1.101 6.24c2.074.044 5.151.065 9.229.065 6.897 0 14.056-.13 21.475-.39l-1.973 11.18c-7.328-.26-14.441-.39-21.338-.39-4.078 0-7.162.023-9.251.065l-1.194 6.76c16.499-.086 28.492-.325 35.979-.715a45.059 45.059 0 0 0-1.522 5.493c-.399 1.885-.85 4.257-1.354 7.117H242.68c1.83-8.406 3.393-16.271 4.686-23.595 1.292-7.322 2.507-15.187 3.644-23.595h50.559l-2.078 11.765h-35.202zm-40.671 1.495-5.989 33.93h-16.267l5.989-33.93c-6.471.044-13.088.174-19.85.39l2.409-13.65h55.895l-2.41 13.65a790.978 790.978 0 0 0-19.777-.39zm-47.243 33.93h-23.294l-9.482-35.49-5.094 35.49h-16.723c1.831-8.406 3.393-16.271 4.686-23.595 1.285-7.28 2.495-15.122 3.633-23.53h23.945l9.375 36.465 5.331-36.465h15.942c-1.596 7.324-3.133 15.168-4.609 23.53-1.484 8.408-2.722 16.273-3.71 23.595zm-65.74-5.785c-5.398 4.29-13.13 6.435-23.194 6.435-9.934 0-16.863-2.155-20.786-6.467-3.925-4.312-5.197-10.368-3.821-18.168 1.362-7.712 4.756-13.736 10.184-18.07C78.447 3.008 86.149.84 96.127.84c10.021 0 16.98 2.168 20.878 6.5 3.898 4.334 5.167 10.358 3.805 18.07-1.384 7.844-4.776 13.91-10.175 18.2zm-6.932-26.715c-1.796-1.862-5.101-2.795-9.916-2.795-4.773 0-8.386.933-10.84 2.795-2.455 1.864-4.018 4.703-4.691 8.515-.682 3.858-.124 6.718 1.673 8.58 1.796 1.864 5.08 2.795 9.853 2.795 4.815 0 8.448-.92 10.899-2.762 2.45-1.842 4.02-4.713 4.708-8.613.673-3.812.111-6.651-1.686-8.515zm-64.025-1.3c-2.505-1.17-5.167-1.755-7.986-1.755-4.165 0-7.46 1.095-9.885 3.283-2.426 2.188-3.921 4.886-4.486 8.092-.612 3.468-.017 6.295 1.788 8.483 1.804 2.188 4.961 3.282 9.474 3.282 3.6 0 6.567-.595 8.904-1.787 2.336-1.192 4.232-3.088 5.689-5.688 3.221 1.908 7.397 4.053 12.529 6.435-3.095 5.244-7.363 8.905-12.805 10.985-5.444 2.08-11.157 3.12-17.144 3.12-9.804 0-16.659-2.08-20.567-6.24-3.907-4.16-5.18-10.096-3.817-17.81C2.74 18.239 6.143 12.108 11.58 7.6 17.018 3.094 24.638.84 34.442.84c13.707 0 22.052 4.703 25.034 14.105-4.142 1.344-9.074 3.359-14.796 6.045-.83-2.426-2.497-4.225-5.002-5.395z"/>
</svg>
