<svg xmlns="http://www.w3.org/2000/svg" width="340" height="55">
    <path fill-rule="evenodd" fill="#B080FF" d="M336.822 15.929a902.12 902.12 0 0 0-22.72-.449l-6.881 39.079h-18.687l6.88-39.079a901.2 901.2 0 0 0-22.803.449L275.379.208h64.211l-2.768 15.721zm-76.993 38.63h-26.76l-10.893-40.876-5.852 40.876h-19.211c2.103-9.682 3.898-18.741 5.384-27.176 1.475-8.384 2.866-17.417 4.173-27.1h27.508l10.77 41.998L251.072.283h18.314c-1.834 8.435-3.599 17.469-5.295 27.1-1.705 9.683-3.126 18.742-4.262 27.176zm-102.7-40.801-1.265 7.187c2.383.05 5.917.075 10.602.075 7.923 0 16.147-.15 24.671-.449l-2.267 12.876a691.13 691.13 0 0 0-24.514-.449c-4.685 0-8.227.026-10.627.075l-1.371 7.786c18.954-.1 32.731-.375 41.332-.824a51.905 51.905 0 0 0-1.748 6.326c-.458 2.171-.977 4.904-1.556 8.198h-58.081c2.102-9.682 3.897-18.741 5.383-27.176 1.484-8.433 2.88-17.492 4.186-27.175h58.081l-2.386 13.55h-40.44zm-40.692 22.235a359.345 359.345 0 0 0-10.146 18.566h-22.35a254.21 254.21 0 0 0-3.53-18.379c-1.399-6.064-3.331-13.837-5.798-23.32A2705.64 2705.64 0 0 1 71.384.208h20.78c.643 4.842 1.766 11.055 3.371 18.641 1.414 6.689 2.488 12.478 3.222 17.368 1.652-3.443 3.558-7.123 5.718-11.042 2.16-3.917 3.464-6.3 3.913-7.149 4.235-7.636 7.398-13.575 9.491-17.818h20.033l-6.951 11.454c-6.119 10.132-10.96 18.242-14.524 24.331zM24.82 13.758l-1.265 7.187c2.383.05 5.917.075 10.602.075 7.923 0 16.147-.15 24.671-.449l-2.267 12.876a691.13 691.13 0 0 0-24.514-.449c-4.684 0-8.227.026-10.627.075l-1.371 7.786c18.954-.1 32.731-.375 41.332-.824a51.905 51.905 0 0 0-1.748 6.326c-.458 2.171-.977 4.904-1.556 8.198H-.004c2.102-9.682 3.897-18.741 5.383-27.176C6.863 18.95 8.259 9.891 9.565.208h58.081l-2.386 13.55H24.82z"/>
</svg>
