<svg xmlns="http://www.w3.org/2000/svg" width="247" height="58">
    <path fill-rule="evenodd" fill="#FF7994" d="M246.365 40.515c-1.097 2.55-1.927 5.001-2.491 7.35-.564 2.351-1.139 5.201-1.728 8.55h-52.764c2.105-9.699 3.902-18.774 5.39-27.225 1.486-8.449 2.883-17.524 4.191-27.225h18.261l-6.914 39.3c14.486-.099 26.504-.349 36.055-.75zM176.56 49.74c-6.209 4.95-15.103 7.425-26.678 7.425-11.426 0-19.395-2.486-23.908-7.462-4.514-4.975-5.978-11.963-4.395-20.963 1.566-8.899 5.471-15.849 11.714-20.85 6.244-4.999 15.103-7.5 26.58-7.5 11.526 0 19.53 2.501 24.014 7.5 4.483 5.001 5.943 11.951 4.377 20.85-1.593 9.051-5.494 16.05-11.704 21zm-7.973-30.825c-2.066-2.149-5.868-3.225-11.406-3.225-5.489 0-9.646 1.076-12.468 3.225-2.823 2.151-4.622 5.426-5.396 9.825-.784 4.451-.142 7.751 1.925 9.9 2.066 2.151 5.843 3.225 11.332 3.225 5.539 0 9.717-1.061 12.537-3.187 2.818-2.125 4.623-5.438 5.415-9.938.774-4.399.128-7.674-1.939-9.825zm-59.311 24.45c-3.225 4.151-7.532 7.363-12.922 9.638-5.39 2.276-11.727 3.412-19.011 3.412H63.796c-4.591 0-9.227-.024-13.908-.075 2.132-9.849 3.946-19.024 5.443-27.525A653.987 653.987 0 0 0 59.469 1.89c6.025-.499 14.053-.75 24.082-.75 9.38 0 16.589 1.138 21.627 3.413 5.038 2.276 8.289 5.426 9.751 9.45 1.461 4.025 1.679 8.962.65 14.812-.978 5.55-3.078 10.401-6.303 14.55zM95.086 19.59c-1.209-2.349-4.058-3.525-8.548-3.525-4.841 0-8.484.15-10.931.45L71.213 41.49h10.852c4.64 0 7.931-1.125 9.873-3.375 1.942-2.25 3.262-5.349 3.957-9.3.669-3.799.399-6.874-.809-9.225zm-57.323-3.225-4.513 25.65c2.902-.049 7.324-.225 13.265-.525l-2.627 14.925H.405L3.031 41.49c5.685.3 10.02.476 13.005.525l4.513-25.65c-3.003.051-7.399.225-13.19.525L9.986 1.965h43.483L50.842 16.89c-5.884-.3-10.245-.474-13.079-.525z"/>
</svg>
