<svg xmlns="http://www.w3.org/2000/svg" width="406.31" height="42" viewBox="0 0 406.31 42">
  <defs>
    <style>
      .cls-1 {
        fill: #888685;
        fill-rule: evenodd;
      }
    </style>
  </defs>
  <path id="Official_Video" data-name="Official  Video" class="cls-1" d="M3393.53,1296.58q11.58,0,17.78-4.95t7.81-14q1.56-8.895-2.92-13.9t-16.01-5q-11.475,0-17.72,5a21.968,21.968,0,0,0-7.81,13.9q-1.59,9,2.93,13.98t15.94,4.97h0Zm1.79-10.2c-3.66,0-6.17-.71-7.55-2.15s-1.81-3.63-1.29-6.6a10.071,10.071,0,0,1,3.6-6.55q2.82-2.145,8.31-2.15c3.7,0,6.23.72,7.61,2.15s1.81,3.62,1.29,6.55a10.1,10.1,0,0,1-3.61,6.63c-1.88,1.41-4.66,2.12-8.36,2.12h0Zm40.78-19.9a1.964,1.964,0,0,1,.94-0.85,3.727,3.727,0,0,1,1.55-.3,6.48,6.48,0,0,1,2.34.48,5.929,5.929,0,0,1,2.17,1.42l0.56-1.5q1.965-5.49,3.61-9.15a20.39,20.39,0,0,0-5.79-.85,16.031,16.031,0,0,0-6.71,1.4,13.348,13.348,0,0,0-5.14,4.15,15.23,15.23,0,0,0-2.77,6.65l-0.17.95h-3.54l-1.56,8.85c1.72-.13,2.93-0.21,3.64-0.25q-2.235,12.7-3.32,18.6h11.82q1.32-9.45,2.9-18.75,2.445,0.06,6.52.4l1.56-8.85h-6.59a2.858,2.858,0,0,1-1.79-.47,1.265,1.265,0,0,1-.45-1.28,2.062,2.062,0,0,1,.22-0.65h0Zm23.45,0a1.964,1.964,0,0,1,.94-0.85,3.727,3.727,0,0,1,1.55-.3,6.48,6.48,0,0,1,2.34.48,5.929,5.929,0,0,1,2.17,1.42l0.56-1.5q1.965-5.49,3.61-9.15a20.39,20.39,0,0,0-5.79-.85,16.031,16.031,0,0,0-6.71,1.4,13.348,13.348,0,0,0-5.14,4.15,15.23,15.23,0,0,0-2.77,6.65l-0.17.95h-3.54l-1.56,8.85c1.72-.13,2.94-0.21,3.64-0.25q-2.235,12.7-3.32,18.6h11.82q1.32-9.45,2.9-18.75,2.445,0.06,6.52.4l1.56-8.85h-6.59a2.858,2.858,0,0,1-1.79-.47,1.265,1.265,0,0,1-.45-1.28,2.062,2.062,0,0,1,.22-0.65h0Zm19.22-.65a7.282,7.282,0,0,0,4.91-1.55,6.588,6.588,0,0,0,2.26-4.05,4.794,4.794,0,0,0-.88-4.02c-0.88-1.09-2.31-1.63-4.31-1.63a7.256,7.256,0,0,0-4.95,1.6,6.876,6.876,0,0,0-2.23,4.05,4.853,4.853,0,0,0,.81,4.05c0.83,1.04,2.3,1.55,4.39,1.55h0Zm0.77,30.25q1.02-7.8,1.99-13.3,1.14-6.54,2.86-14h-11.98q-0.96,7.755-2.06,14-0.93,5.25-2.69,13.3h11.88Zm17.12-13.65a7.224,7.224,0,0,1,2.34-4.1,7.092,7.092,0,0,1,4.79-1.55,5.578,5.578,0,0,1,4.9,2.5,100.97,100.97,0,0,1,10.43-2.85,9.588,9.588,0,0,0-4.51-6q-3.54-2.145-9.78-2.15-8.325,0-13.01,3.9a16.656,16.656,0,0,0-5.79,10.25q-1.125,6.36,2.19,10.25t11.63,3.9a23.322,23.322,0,0,0,10.54-2.15,15.749,15.749,0,0,0,6.62-6,55.135,55.135,0,0,1-9.43-2.85,9.693,9.693,0,0,1-2.73,1.88,7.525,7.525,0,0,1-3.05.62c-2,0-3.41-.51-4.24-1.55a5.1,5.1,0,0,1-.9-4.1h0Zm34.75-16.6a7.282,7.282,0,0,0,4.91-1.55,6.588,6.588,0,0,0,2.26-4.05,4.763,4.763,0,0,0-.89-4.02c-0.87-1.09-2.3-1.63-4.3-1.63a7.238,7.238,0,0,0-4.95,1.6,6.876,6.876,0,0,0-2.23,4.05,4.853,4.853,0,0,0,.81,4.05c0.83,1.04,2.3,1.55,4.39,1.55h0Zm0.76,30.25q1.035-7.8,2-13.3,1.14-6.54,2.86-14h-11.98q-0.96,7.755-2.06,14-0.93,5.25-2.69,13.3h11.87Zm39.09-14.25c0.8-4.6.17-8.01-1.92-10.22s-5.7-3.33-10.82-3.33a22.437,22.437,0,0,0-9.68,1.98,26.773,26.773,0,0,0-7.85,5.77,52.728,52.728,0,0,1,6.76,4.7,15.826,15.826,0,0,0-7.09,2.55,7.853,7.853,0,0,0-3.04,5.1q-0.69,3.96,1.47,5.95c1.45,1.34,3.84,2,7.16,2a13.378,13.378,0,0,0,7.41-2,15.652,15.652,0,0,0,5.29-6.1l-0.22,1.25a7.472,7.472,0,0,0,.53,4.93q1.065,1.92,5.35,1.92c1.3,0,2.34-.03,3.14-0.1s1.74-.18,2.83-0.35l1.03-4.7a1.867,1.867,0,0,1-1.42-1,4.847,4.847,0,0,1,.02-2.4Zm-13.24-4.75a3.77,3.77,0,0,1,2.02.43,0.978,0.978,0,0,1,.57,1.02,1.654,1.654,0,0,1-.95,1.15,5.882,5.882,0,0,1-2.67.45,68.88,68.88,0,0,0-7.55.35,13.15,13.15,0,0,1,3.94-2.55,12.364,12.364,0,0,1,4.64-.85h0Zm-7.19,11.1c-1.73,0-2.51-.48-2.34-1.45,0.16-.9,1.2-1.53,3.13-1.9l1.85-.3c1.4-.2,2.6-0.41,3.6-0.62a13.828,13.828,0,0,0,2.81-.93l-0.23,1.3a8.053,8.053,0,0,1-3.59,2.83,12.945,12.945,0,0,1-5.23,1.07h0Zm38.15-12.1c0.25-1.6.67-4.06,1.25-7.4q0.8-4.5,2.14-11.6H3580.6l-0.9,5.4q-1.455,8.8-2.29,13.6-0.9,5.055-2.63,14.35l-1.04,5.65h11.77q0.495-3.345,1.8-10.8,1.095-6.195,1.67-9.2h0Zm55.91-16.3q-2.1,4.26-6.34,11.9-0.45.855-2.61,4.78t-3.82,7.37q-0.72-4.89-2.15-11.6-1.6-7.59-2.25-12.45h-13.87q1.74,6.855,2.16,8.45,2.475,9.51,3.87,15.58t2.36,12.27h14.91q3.21-6.3,6.78-12.4t9.69-16.25l4.64-7.65h-13.37Zm21.64,6.05a7.282,7.282,0,0,0,4.91-1.55,6.636,6.636,0,0,0,2.26-4.05,4.8,4.8,0,0,0-.89-4.02c-0.87-1.09-2.31-1.63-4.3-1.63a7.221,7.221,0,0,0-4.95,1.6,6.889,6.889,0,0,0-2.24,4.05,4.853,4.853,0,0,0,.81,4.05c0.84,1.04,2.3,1.55,4.4,1.55h0Zm0.76,30.25q1.02-7.8,1.99-13.3,1.155-6.54,2.86-14h-11.97q-0.96,7.755-2.06,14-0.93,5.25-2.69,13.3h11.87Zm44.07-38.9h-11.28q-0.435,2.5-1.31,8.6-0.915,6.3-1.41,9.15a7.659,7.659,0,0,0-3.24-5.02,11.365,11.365,0,0,0-6.37-1.63,11.037,11.037,0,0,0-6.32,2.03,17.289,17.289,0,0,0-5.01,5.35,20.179,20.179,0,0,0-2.69,7.07,15.759,15.759,0,0,0,.22,6.98,9.627,9.627,0,0,0,3.16,5.02,8.4,8.4,0,0,0,5.51,1.85,14.394,14.394,0,0,0,6.76-1.57,12.9,12.9,0,0,0,5.06-4.93l-1.2,6h11.27q1.365-9.39,3.13-19.45,1.785-10.14,3.72-19.45h0Zm-22.02,31a3.964,3.964,0,0,1-3.51-1.6,5.354,5.354,0,0,1-.67-4.15,5.9,5.9,0,0,1,2.18-3.72,6.235,6.235,0,0,1,4.01-1.43,5.176,5.176,0,0,1,3.68,1.25c0.88,0.84,1.17,2.14.86,3.9a6.257,6.257,0,0,1-6.55,5.75h0Zm53.94-4.6a14.594,14.594,0,0,0,.45-1.95,11.057,11.057,0,0,0-.78-6.92,10.276,10.276,0,0,0-4.91-4.73,19.2,19.2,0,0,0-8.53-1.7q-8.535,0-13.26,3.9a16.467,16.467,0,0,0-5.83,10.15q-1.125,6.4,2.25,10.33t11.86,3.92a25.873,25.873,0,0,0,10.97-2.07,14.9,14.9,0,0,0,6.59-5.58,62.913,62.913,0,0,1-8.25-3.55,9.261,9.261,0,0,1-3.36,2.33,10.542,10.542,0,0,1-4.08.82,5.7,5.7,0,0,1-4.23-1.37,5.015,5.015,0,0,1-1.34-3.58h22.45Zm-14.4-7.75a5.056,5.056,0,0,1,3.32.98,4.353,4.353,0,0,1,1.5,2.57h-11.78a6.766,6.766,0,0,1,2.7-2.6,8.934,8.934,0,0,1,4.26-.95h0Zm31.78,20.75q8.625,0,13.58-3.9a16.324,16.324,0,0,0,6.09-10.35,12.755,12.755,0,0,0-.6-7.12,9.9,9.9,0,0,0-4.82-5.05,19.8,19.8,0,0,0-9.27-1.88q-8.535,0-13.24,3.9a16.475,16.475,0,0,0-5.8,10.15q-1.125,6.4,2.2,10.33t11.86,3.92h0Zm1.69-8.5c-2.16,0-3.65-.51-4.47-1.55a5.022,5.022,0,0,1-.76-4.15,6.781,6.781,0,0,1,2.21-4.05,7.382,7.382,0,0,1,5.01-1.55q3.24,0,4.56,1.58a4.682,4.682,0,0,1,.89,4.02,6.684,6.684,0,0,1-2.33,4.15,7.72,7.72,0,0,1-5.11,1.55h0Z" transform="translate(-3374.25 -1254.59)"/>
</svg>
