<svg 
 xmlns="http://www.w3.org/2000/svg"
 xmlns:xlink="http://www.w3.org/1999/xlink"
 width="430px" height="41px">
<path fill-rule="evenodd"  fill="rgb(136, 134, 133)"
 d="M422.330,22.193 C420.610,21.192 418.963,20.484 417.390,20.067 C415.817,19.650 414.198,19.441 412.535,19.441 C411.371,19.441 410.332,19.675 409.418,20.142 C408.505,20.609 407.996,21.142 407.890,21.743 C407.807,22.211 407.918,22.577 408.220,22.844 C408.523,23.111 408.956,23.244 409.522,23.244 C410.087,23.244 410.878,23.194 411.894,23.094 C414.351,22.928 416.178,22.844 417.376,22.844 C420.835,22.844 423.410,23.428 425.101,24.595 C426.791,25.764 427.426,27.548 427.004,29.950 C426.370,33.553 424.514,36.164 421.435,37.781 C418.357,39.400 414.356,40.209 409.433,40.209 C406.639,40.209 403.872,39.816 401.133,39.033 C398.393,38.249 395.901,37.056 393.654,35.455 L400.151,28.298 C401.488,29.399 403.183,30.259 405.237,30.876 C407.290,31.493 409.098,31.801 410.662,31.801 C412.159,31.801 413.351,31.593 414.240,31.176 C415.128,30.759 415.630,30.217 415.748,29.550 C415.842,29.016 415.715,28.599 415.369,28.298 C415.023,27.998 414.501,27.848 413.802,27.848 C413.370,27.848 412.876,27.865 412.321,27.898 C411.766,27.932 411.320,27.965 410.982,27.998 C409.217,28.198 407.419,28.298 405.590,28.298 C402.629,28.298 400.324,27.740 398.675,26.622 C397.025,25.505 396.423,23.678 396.869,21.142 C397.385,18.207 399.166,15.930 402.211,14.312 C405.256,12.694 409.457,11.885 414.813,11.885 C417.440,11.885 420.027,12.260 422.573,13.011 C425.118,13.761 427.290,14.887 429.089,16.388 L422.330,22.193 ZM393.641,21.343 C390.615,21.142 387.847,20.992 385.337,20.892 L384.355,26.197 C384.038,27.998 384.181,29.408 384.784,30.425 C385.386,31.443 386.686,31.952 388.682,31.952 C389.446,31.952 390.190,31.885 390.912,31.751 C390.562,32.986 390.276,34.237 390.053,35.505 C389.947,36.105 389.740,37.473 389.432,39.608 C387.921,39.875 386.660,40.041 385.651,40.108 C384.641,40.175 383.338,40.209 381.742,40.209 C377.850,40.209 375.262,39.266 373.981,37.381 C372.699,35.497 372.354,32.870 372.947,29.499 L374.483,21.042 C372.909,21.110 371.261,21.210 369.541,21.343 L371.098,12.485 C372.828,12.485 374.388,11.935 375.779,10.834 C377.170,9.733 378.117,8.415 378.620,6.880 L392.191,6.880 C390.084,9.216 387.876,11.084 385.568,12.485 L395.198,12.485 L393.641,21.343 ZM356.418,20.067 C354.845,19.650 353.227,19.441 351.564,19.441 C350.399,19.441 349.360,19.675 348.447,20.142 C347.533,20.609 347.024,21.142 346.918,21.743 C346.835,22.211 346.946,22.577 347.249,22.844 C347.551,23.111 347.984,23.244 348.550,23.244 C349.116,23.244 349.906,23.194 350.922,23.094 C353.379,22.928 355.207,22.844 356.404,22.844 C359.863,22.844 362.438,23.428 364.129,24.595 C365.820,25.764 366.454,27.548 366.032,29.950 C365.399,33.553 363.542,36.164 360.464,37.781 C357.385,39.400 353.384,40.209 348.462,40.209 C345.667,40.209 342.901,39.816 340.161,39.033 C337.422,38.249 334.929,37.056 332.682,35.455 L339.180,28.298 C340.516,29.399 342.211,30.259 344.265,30.876 C346.318,31.493 348.126,31.801 349.690,31.801 C351.187,31.801 352.379,31.593 353.268,31.176 C354.156,30.759 354.659,30.217 354.776,29.550 C354.870,29.016 354.744,28.599 354.398,28.298 C354.051,27.998 353.529,27.848 352.831,27.848 C352.398,27.848 351.904,27.865 351.349,27.898 C350.794,27.932 350.348,27.965 350.010,27.998 C348.245,28.198 346.447,28.298 344.618,28.298 C341.657,28.298 339.353,27.740 337.703,26.622 C336.053,25.505 335.451,23.678 335.897,21.142 C336.414,18.207 338.194,15.930 341.239,14.312 C344.284,12.694 348.485,11.885 353.841,11.885 C356.468,11.885 359.055,12.260 361.601,13.011 C364.147,13.761 366.319,14.887 368.117,16.388 L361.359,22.193 C359.638,21.192 357.992,20.484 356.418,20.067 ZM325.273,36.305 C321.971,38.907 317.443,40.209 311.689,40.209 C306.001,40.209 302.048,38.900 299.831,36.280 C297.614,33.662 296.880,30.217 297.631,25.946 C298.364,21.777 300.298,18.390 303.434,15.788 C306.569,13.186 310.981,11.885 316.669,11.885 C320.494,11.885 323.586,12.510 325.943,13.761 C328.301,15.012 329.909,16.697 330.768,18.815 C331.626,20.934 331.823,23.311 331.360,25.946 C330.604,30.250 328.575,33.703 325.273,36.305 ZM319.935,21.968 C319.056,20.917 317.534,20.392 315.373,20.392 C313.210,20.392 311.539,20.909 310.360,21.943 C309.179,22.978 308.443,24.329 308.150,25.997 C307.845,27.732 308.100,29.116 308.917,30.150 C309.733,31.185 311.222,31.701 313.385,31.701 C315.546,31.701 317.251,31.185 318.497,30.150 C319.742,29.116 320.518,27.732 320.824,25.997 C321.111,24.362 320.814,23.019 319.935,21.968 ZM292.869,24.370 C291.477,26.422 289.383,28.023 286.586,29.174 C283.788,30.325 280.112,30.901 275.555,30.901 L265.177,30.901 L263.628,39.708 L251.354,39.708 C252.758,33.236 253.956,27.181 254.947,21.543 C255.938,15.905 256.870,9.850 257.742,3.377 L270.016,3.377 L270.007,3.427 L280.385,3.427 C287.004,3.427 291.404,4.603 293.586,6.955 C295.767,9.307 296.482,12.619 295.731,16.889 C295.215,19.825 294.261,22.318 292.869,24.370 ZM284.055,14.762 C283.636,14.212 282.755,13.836 281.409,13.636 C280.063,13.436 277.977,13.336 275.150,13.336 L268.265,13.336 L266.875,21.243 L273.760,21.243 C276.521,21.243 278.610,21.135 280.029,20.917 C281.448,20.701 282.482,20.309 283.130,19.741 C283.779,19.174 284.200,18.340 284.393,17.239 C284.587,16.138 284.474,15.313 284.055,14.762 ZM227.405,39.708 L216.128,39.708 L217.334,33.703 C215.976,35.939 214.290,37.581 212.276,38.632 C210.261,39.683 208.007,40.209 205.512,40.209 C203.350,40.209 201.512,39.592 199.1000,38.357 C198.487,37.123 197.435,35.447 196.842,33.328 C196.250,31.210 196.177,28.883 196.623,26.347 C197.063,23.845 197.960,21.485 199.315,19.266 C200.669,17.048 202.339,15.262 204.323,13.911 C206.307,12.560 208.413,11.885 210.642,11.885 C213.237,11.885 215.361,12.427 217.017,13.511 C218.672,14.596 219.750,16.272 220.249,18.540 C220.583,16.639 221.053,13.586 221.660,9.383 C222.242,5.313 222.680,2.444 222.973,0.775 L234.250,0.775 C232.959,6.980 231.718,13.470 230.528,20.242 C229.349,26.947 228.307,33.436 227.405,39.708 ZM217.919,22.143 C217.034,21.310 215.810,20.892 214.247,20.892 C212.750,20.892 211.411,21.368 210.229,22.318 C209.047,23.269 208.322,24.512 208.052,26.047 C207.753,27.748 207.975,29.133 208.719,30.200 C209.463,31.268 210.633,31.801 212.230,31.801 C213.859,31.801 215.270,31.343 216.463,30.425 C217.656,29.508 218.427,28.048 218.780,26.047 C219.090,24.279 218.803,22.978 217.919,22.143 ZM193.380,27.198 L187.193,27.198 L170.927,27.198 C170.935,28.666 171.383,29.858 172.269,30.776 C173.156,31.694 174.563,32.152 176.493,32.152 C177.890,32.152 179.252,31.876 180.580,31.326 C181.907,30.776 183.025,29.1000 183.933,28.999 C185.968,30.100 188.720,31.285 192.190,32.552 C190.747,34.888 188.550,36.748 185.595,38.132 C182.640,39.517 178.985,40.209 174.627,40.209 C168.972,40.209 165.020,38.900 162.770,36.280 C160.519,33.662 159.769,30.217 160.520,25.946 C161.252,21.777 163.195,18.390 166.347,15.788 C169.499,13.186 173.920,11.885 179.608,11.885 C183.000,11.885 185.844,12.452 188.140,13.586 C190.435,14.721 192.070,16.297 193.046,18.315 C194.022,20.334 194.281,22.644 193.823,25.246 C193.670,26.114 193.523,26.764 193.380,27.198 ZM182.298,20.417 C181.514,19.766 180.407,19.441 178.977,19.441 C177.313,19.441 175.894,19.758 174.719,20.392 C173.543,21.026 172.642,21.893 172.016,22.994 L183.791,22.994 C183.579,21.927 183.082,21.067 182.298,20.417 ZM158.835,21.343 C155.809,21.142 153.042,20.992 150.531,20.892 L149.549,26.197 C149.232,27.998 149.375,29.408 149.978,30.425 C150.580,31.443 151.880,31.952 153.876,31.952 C154.641,31.952 155.384,31.885 156.106,31.751 C155.756,32.986 155.470,34.237 155.247,35.505 C155.141,36.105 154.934,37.473 154.626,39.608 C153.115,39.875 151.854,40.041 150.845,40.108 C149.835,40.175 148.532,40.209 146.936,40.209 C143.044,40.209 140.456,39.266 139.175,37.381 C137.893,35.497 137.548,32.870 138.141,29.499 L139.678,21.042 C138.103,21.110 136.455,21.210 134.736,21.343 L136.292,12.485 C138.022,12.485 139.582,11.935 140.973,10.834 C142.364,9.733 143.311,8.415 143.814,6.880 L157.386,6.880 C155.278,9.216 153.070,11.084 150.762,12.485 L160.392,12.485 L158.835,21.343 ZM130.872,34.804 L129.845,39.508 C128.751,39.675 127.808,39.791 127.014,39.858 C126.221,39.925 125.176,39.958 123.879,39.958 C121.018,39.958 119.235,39.316 118.529,38.032 C117.824,36.748 117.647,35.104 117.999,33.103 L118.219,31.851 C116.773,34.587 115.009,36.623 112.929,37.957 C110.848,39.291 108.378,39.958 105.517,39.958 C102.191,39.958 99.805,39.291 98.360,37.957 C96.914,36.623 96.423,34.637 96.887,32.002 C97.268,29.833 98.282,28.132 99.930,26.897 C101.577,25.663 103.939,24.813 107.015,24.345 C104.803,22.544 102.551,20.976 100.257,19.641 C102.699,17.106 105.316,15.180 108.110,13.861 C110.902,12.544 114.128,11.885 117.788,11.885 C122.910,11.885 126.515,12.994 128.603,15.212 C130.691,17.431 131.330,20.842 130.521,25.446 L129.474,31.401 C129.274,32.536 129.267,33.336 129.451,33.803 C129.635,34.271 130.109,34.604 130.872,34.804 ZM107.755,30.350 C107.585,31.318 108.365,31.801 110.094,31.801 C111.957,31.801 113.699,31.443 115.323,30.726 C116.946,30.009 118.142,29.066 118.913,27.898 L119.143,26.597 C118.273,26.997 117.338,27.306 116.335,27.523 C115.333,27.740 114.131,27.948 112.733,28.148 L110.883,28.449 C108.956,28.816 107.913,29.449 107.755,30.350 ZM119.307,21.117 C118.858,20.834 118.185,20.692 117.286,20.692 C115.590,20.692 114.043,20.976 112.646,21.543 C111.249,22.110 109.935,22.961 108.705,24.095 C110.742,23.862 113.257,23.745 116.251,23.745 C117.481,23.745 118.372,23.595 118.924,23.294 C119.476,22.994 119.793,22.611 119.875,22.143 C119.946,21.743 119.756,21.401 119.307,21.117 ZM95.509,19.691 C95.124,21.693 94.567,24.763 93.840,28.899 C92.966,33.870 92.365,37.473 92.040,39.708 L80.264,39.708 L81.308,34.053 C82.465,27.848 83.341,23.061 83.933,19.691 C84.496,16.489 85.260,11.952 86.227,6.080 L87.126,0.675 L98.902,0.675 C98.002,5.413 97.289,9.282 96.761,12.285 C96.175,15.621 95.757,18.090 95.509,19.691 ZM78.871,27.198 L72.684,27.198 L56.418,27.198 C56.426,28.666 56.874,29.858 57.760,30.776 C58.647,31.694 60.054,32.152 61.984,32.152 C63.381,32.152 64.743,31.876 66.071,31.326 C67.398,30.776 68.516,29.1000 69.424,28.999 C71.459,30.100 74.211,31.285 77.681,32.552 C76.238,34.888 74.041,36.748 71.086,38.132 C68.131,39.517 64.476,40.209 60.118,40.209 C54.463,40.209 50.511,38.900 48.261,36.280 C46.010,33.662 45.260,30.217 46.011,25.946 C46.743,21.777 48.686,18.390 51.838,15.788 C54.990,13.186 59.411,11.885 65.099,11.885 C68.491,11.885 71.335,12.452 73.631,13.586 C75.926,14.721 77.561,16.297 78.537,18.315 C79.513,20.334 79.772,22.644 79.314,25.246 C79.161,26.114 79.014,26.764 78.871,27.198 ZM67.789,20.417 C67.005,19.766 65.898,19.441 64.468,19.441 C62.804,19.441 61.385,19.758 60.210,20.392 C59.034,21.026 58.133,21.893 57.507,22.994 L69.282,22.994 C69.070,21.927 68.573,21.067 67.789,20.417 ZM40.943,22.844 C39.177,24.846 36.502,26.297 32.918,27.198 C33.223,27.732 33.432,28.148 33.546,28.449 L39.650,39.708 L26.078,39.708 C25.095,36.973 23.464,33.103 21.184,28.098 L13.849,28.098 L11.808,39.708 L0.033,39.708 C1.436,33.236 2.635,27.181 3.626,21.543 C4.617,15.905 5.549,9.850 6.420,3.377 L18.196,3.377 L18.187,3.427 L28.416,3.427 C35.134,3.427 39.634,4.512 41.914,6.680 C44.193,8.849 45.008,11.785 44.357,15.488 C43.846,18.390 42.708,20.842 40.943,22.844 ZM32.519,14.137 C32.058,13.736 31.110,13.453 29.675,13.286 C28.241,13.119 26.094,13.036 23.234,13.036 L16.498,13.036 L15.494,18.740 L22.230,18.740 C25.057,18.740 27.210,18.649 28.690,18.465 C30.170,18.282 31.227,17.990 31.863,17.589 C32.498,17.189 32.884,16.606 33.019,15.838 C33.148,15.105 32.981,14.537 32.519,14.137 Z"/>
</svg>